{"title":"San Andreas 2015 RU CAM XVID AC3 MURD3R","uid":11976865,"size":1487913597,"categoryP":"video","categoryS":"movies","magnet":"?xt=urn:btih:4798ba2caf638da14f19d54aadf16f54dd447c37&amp;dn=San+Andreas+2015+RU+CAM+XVID+AC3+MURD3R&amp;tr=udp%3A%2F%2Ftracker.openbittorrent.com%3A80&amp;tr=udp%3A%2F%2Fopen.demonii.com%3A1337&amp;tr=udp%3A%2F%2Ftracker.coppersurfer.tk%3A6969&amp;tr=udp%3A%2F%2Fexodus.desync.com%3A6969","seeders":1,"leechers":0,"uploader":"makintos13","files":9,"time":1433049606,"description":"Screens:\n  &lt;a href=&quot;\nhttp://imgmak.com/57&quot; rel=&quot;nofollow&quot; target=&quot;_NEW&quot;&gt;\nhttp://imgmak.com/57&lt;/a&gt;\n  &lt;a href=&quot;\nhttp://imgmak.com/5k&quot; rel=&quot;nofollow&quot; target=&quot;_NEW&quot;&gt;\nhttp://imgmak.com/5k&lt;/a&gt;\n  &lt;a href=&quot;\nhttp://imgmak.com/5m&quot; rel=&quot;nofollow&quot; target=&quot;_NEW&quot;&gt;\nhttp://imgmak.com/5m&lt;/a&gt;\n  &lt;a href=&quot;\nhttp://imgmak.com/5u&quot; rel=&quot;nofollow&quot; target=&quot;_NEW&quot;&gt;\nhttp://imgmak.com/5u&lt;/a&gt;\n\nSan Andreas 2015 RU CAM XVID AC3 MURD3R\n\nELEKTRI4KA.                 :TY..\nFormat                      : AVI\nFormat/Info                 : Audio Video Interleave\nFile size                   : 1.38 GiB\nDuration                    : 1h 47mn\nOverall bit rate            : 1 844 Kbps\n\nVideo\nID                          : 0\nFormat                      : MPEG-4 Visual\nFormat profile              : Advanced Simple@L5\nFormat settings, BVOP       : 2\nFormat settings, QPel       : No\nFormat settings, GMC        : No warppoints\nFormat settings, Matrix     : Default (MPEG)\nCodec ID                    : XVID\nCodec ID/Hint               : XviD\nDuration                    : 1h 47mn\nBit rate                    : 1 737 Kbps\nWidth                       : 720 pixels\nHeight                      : 304 pixels\nDisplay aspect ratio        : 2.35:1\nFrame rate                  : 29.970 fps\nColor space                 : YUV\nChroma subsampling          : 4:2:0\nBit depth                   : 8 bits\nScan type                   : Progressive\nCompression mode            : Lossy\nBits/(Pixel*Frame)          : 0.265\nStream size                 : 1.30 GiB (94%)\nWriting library             : XviD 73\n\nAudio\nID                          : 1\nFormat                      : AC-3\nFormat/Info                 : Audio Coding 3\nMode extension              : CM (complete main)\nFormat settings, Endianness : Big\nCodec ID                    : 2000\nDuration                    : 1h 47mn\nBit rate mode               : Constant\nBit rate                    : 96.0 Kbps\nChannel(s)                  : 2 channels\nChannel positions           : Front: L R\nSampling rate               : 32.0 KHz\nBit depth                   : 16 bits\nCompression mode            : Lossy\nStream size                 : 73.8 MiB (5%)\nAlignment                   : Aligned on interleaves\nInterleave, duration        : 48 ms (1.44 video frame)\n\n\n::::::::::::TPB NEW FORUM : https://pirates-forum.org/index.php/","torrent":{"xt":"urn:btih:4798ba2caf638da14f19d54aadf16f54dd447c37","amp;dn":"San+Andreas+2015+RU+CAM+XVID+AC3+MURD3R","amp;tr":["udp%3A%2F%2Ftracker.openbittorrent.com%3A80","udp%3A%2F%2Fopen.demonii.com%3A1337","udp%3A%2F%2Ftracker.coppersurfer.tk%3A6969","udp%3A%2F%2Fexodus.desync.com%3A6969"],"infoHash":"4798ba2caf638da14f19d54aadf16f54dd447c37","infoHashBuffer":{"type":"Buffer","data":[71,152,186,44,175,99,141,161,79,25,213,74,173,241,111,84,221,68,124,55]},"announce":[],"urlList":[]}}